<?xml version="1.0" standalone="no"?><!DOCTYPE svg PUBLIC "-//W3C//DTD SVG 1.1//EN" "http://www.w3.org/Graphics/SVG/1.1/DTD/svg11.dtd"><svg class="icon" width="200px" height="200.00px" viewBox="0 0 1024 1024" version="1.1" xmlns="http://www.w3.org/2000/svg"><path d="M456.64 878.784l-120.608 106.144a28.128 28.128 0 0 1-31.072 4.16 29.792 29.792 0 0 1-12.288-11.2 31.872 31.872 0 0 1-4.672-16.416V350.752c0-8.16 3.104-16 8.576-21.76A28.672 28.672 0 0 1 317.344 320h645.312c7.776 0 15.264 3.232 20.768 9.024 5.472 5.76 8.576 13.6 8.576 21.76v492.256c0 8.16-3.104 16-8.576 21.76a28.64 28.64 0 0 1-20.768 8.992H470.24l-13.568 4.992z" fill="#BED5FF" /><path d="M114.752 210.752A64 64 0 0 1 160 192h704a64 64 0 0 1 64 64v512a64 64 0 0 1-64 64H332.256l-4.16 1.472-127.296 106.784A64 64 0 0 1 96 891.456V256a64 64 0 0 1 18.752-45.248zM864 256H160v634.944l131.424-110.272a32 32 0 0 1 9.984-5.664l14.784-5.216a32 32 0 0 1 10.624-1.792H864V256z" fill="#0948B3" /><path d="M352 448a32 32 0 0 1 32-32h256a32 32 0 1 1 0 64h-256a32 32 0 0 1-32-32zM352 576a32 32 0 0 1 32-32h256a32 32 0 1 1 0 64h-256a32 32 0 0 1-32-32z" fill="#0948B3" /></svg>